<?xml version="1.0" encoding="UTF-8" standalone="no"?>
<!-- Created with Inkscape (http://www.inkscape.org/) -->

<svg
   width="149.95757mm"
   height="137.82138mm"
   viewBox="0 0 149.95756 137.82138"
   version="1.1"
   id="svg1"
   inkscape:version="1.3 (0e150ed6c4, 2023-07-21)"
   sodipodi:docname="caisse.svg"
   xmlns:inkscape="http://www.inkscape.org/namespaces/inkscape"
   xmlns:sodipodi="http://sodipodi.sourceforge.net/DTD/sodipodi-0.dtd"
   xmlns="http://www.w3.org/2000/svg"
   xmlns:svg="http://www.w3.org/2000/svg">
  <sodipodi:namedview
     id="namedview1"
     pagecolor="#ffffff"
     bordercolor="#000000"
     borderopacity="0.25"
     inkscape:showpageshadow="2"
     inkscape:pageopacity="0.0"
     inkscape:pagecheckerboard="0"
     inkscape:deskcolor="#d1d1d1"
     inkscape:document-units="mm"
     inkscape:zoom="0.70110129"
     inkscape:cx="234.63086"
     inkscape:cy="341.60542"
     inkscape:window-width="1920"
     inkscape:window-height="1001"
     inkscape:window-x="-9"
     inkscape:window-y="-9"
     inkscape:window-maximized="1"
     inkscape:current-layer="layer1" />
  <defs
     id="defs1" />
  <g
     inkscape:label="Calque 1"
     inkscape:groupmode="layer"
     id="layer1"
     transform="translate(-43.07364,-57.999642)">
    <path
       style="display:inline; fill:currentColor" 
       d="m 156.49169,195.63286 c -4.5917,-0.57227 -10.76132,-3.22674 -10.75851,-4.62884 0.005,-2.68946 0.84539,-8.77919 1.30847,-9.48593 1.31864,-2.0125 5.62368,-3.60093 10.68477,-3.94236 l 3.35139,-0.22609 0.10304,-3.16364 c 0.11549,-3.54539 0.30647,-3.90773 2.84312,-5.39431 2.17556,-1.27496 4.85769,-1.8366 9.93022,-2.07939 6.35725,-0.30427 13.04957,1.10105 16.9476,3.55882 l 1.84511,1.16338 0.15809,4.36868 c 0.1864,5.15118 0.19145,4.85543 -0.15657,9.16614 -0.15854,1.96381 -0.4759,3.62994 -0.75546,3.96622 -0.5203,0.62586 -2.20914,1.1697 -4.54309,1.46294 -0.80587,0.10126 -1.88053,0.342 -2.38814,0.53499 -1.41391,0.53757 -2.97169,0.41937 -3.87901,-0.29433 l -0.82027,-0.64522 1.2056,-0.43595 c 0.66307,-0.23977 1.20559,-0.59 1.20559,-0.7783 0,-0.21342 0.25699,-0.20482 0.68236,0.0228 0.96389,0.51585 3.18911,0.46378 3.23882,-0.0758 0.0597,-0.64833 -0.0384,-1.7412 -0.23907,-2.66333 -0.17246,-0.79243 -0.24546,-0.80566 -3.14554,-0.57035 l -2.96898,0.2409 -0.23417,-0.93304 c -0.13567,-0.54053 0.005,-1.66414 0.33425,-2.67094 0.31264,-0.95584 0.56844,-2.39379 0.56844,-3.19545 0,-1.30527 -0.082,-1.44578 -0.78492,-1.34482 -0.43171,0.062 -0.96657,0.47851 -1.18858,0.92558 -0.37524,0.75562 -0.41613,0.76517 -0.58076,0.13565 -0.13818,-0.52842 -0.594,-0.71908 -2.07461,-0.86778 -3.16759,-0.31812 -7.77809,-0.99691 -9.92631,-1.46142 -2.02034,-0.43686 -2.02887,-0.43523 -1.54513,0.29432 0.37268,0.56205 0.8971,0.74767 2.24254,0.79376 2.39021,0.0819 4.38016,0.66092 7.32014,2.13 3.7826,1.89014 3.68761,1.73759 3.4598,5.55612 -0.12285,2.05917 -0.0458,3.71153 0.20683,4.43626 0.38338,1.09978 0.33617,1.21807 -0.9896,2.47925 -2.62956,2.50144 -8.25102,3.89373 -15.36579,3.8057 -2.32833,-0.0288 -4.70958,-0.11173 -5.29167,-0.18427 z m 3.98636,-5.31864 c -0.0915,-1.75473 -0.20629,-2.04281 -0.85045,-2.13477 -0.60107,-0.0858 -0.78149,0.1207 -0.93569,1.07087 -0.32154,1.98146 0.0497,3.09238 1.03351,3.09238 0.82212,0 0.85395,-0.0858 0.75263,-2.02848 z m 4.30392,0.46983 c 0,-2.01288 -0.2712,-2.67469 -1.09607,-2.67469 -0.58103,0 -0.66782,0.27506 -0.66782,2.11667 0,2.02259 0.0392,2.11667 0.88195,2.11667 0.80766,0 0.88194,-0.13128 0.88194,-1.55865 z m -8.46666,-0.86967 c 0,-1.92852 -0.0619,-2.08737 -0.87366,-2.24255 -1.15797,-0.22136 -1.24301,-0.0901 -1.24301,1.91881 0,1.45031 0.12307,1.76593 0.79375,2.03551 1.28097,0.51489 1.32292,0.46062 1.32292,-1.71177 z m 12.7,-0.0411 c 0,-2.02259 -0.0392,-2.11667 -0.88195,-2.11667 -0.84275,0 -0.88194,0.0941 -0.88194,2.11667 0,2.02259 0.0392,2.11667 0.88194,2.11667 0.84275,0 0.88195,-0.0941 0.88195,-2.11667 z m 4.24073,-0.44097 c 0.21305,-0.82462 0.468,-1.77712 0.56654,-2.11667 0.21127,-0.72802 0.20495,-0.7292 -1.22685,-0.23007 -0.9453,0.32953 -1.11098,0.56197 -1.11098,1.55865 0,2.63693 1.16023,3.15314 1.77129,0.78809 z m -21.2395,-0.38033 c 0.12139,-1.47103 -0.38292,-2.3537 -1.34478,-2.3537 -1.09914,0 -1.26072,2.87742 -0.20302,3.61553 0.82285,0.57422 1.43765,0.073 1.5478,-1.26183 z m 36.90551,-0.7914 c 0.36781,-0.36781 0.55437,-1.19883 0.55437,-2.46944 0,-1.65625 -0.092,-1.91508 -0.68036,-1.91508 -1.63655,0 -2.38752,2.51641 -1.23992,4.15484 0.65431,0.93415 0.66042,0.93518 1.36591,0.22968 z m -18.77743,-3.67492 c 1.39232,-0.38583 2.67728,-0.8473 2.85547,-1.02549 0.59137,-0.59137 -1.38369,-1.47723 -4.92739,-2.21005 -4.5509,-0.94109 -9.44688,-0.75698 -14.53526,0.5466 -1.2199,0.31253 -2.28456,0.56823 -2.36591,0.56823 -0.0813,0 -0.14789,0.21556 -0.14789,0.47902 0,0.30446 1.06067,0.75123 2.91042,1.22594 4.14784,1.06448 3.87189,1.03148 9.00029,1.07634 3.68036,0.0322 5.21898,-0.10878 7.21027,-0.66059 z m 14.91484,-5.38391 c -0.3058,-2.26705 -0.3566,-2.35843 -1.18999,-2.14049 -0.66017,0.17264 -1.09583,1.42683 -1.09583,3.15473 0,0.72652 0.16846,0.83785 1.26782,0.83785 h 1.26783 z m 3.85036,0.32017 c 0.1123,-0.41863 0.20635,-1.42757 0.209,-2.24209 l 0.005,-1.48096 -1.05833,0.36894 c -0.99419,0.34657 -1.05834,0.48089 -1.05834,2.21591 0,1.01583 0.0886,1.93554 0.19682,2.04379 0.40929,0.40928 1.51004,-0.17501 1.70603,-0.90559 z m -4.50453,-5.48465 c 3.04977,-0.68995 3.66002,-0.93666 3.66002,-1.47965 0,-0.48324 -1.40719,-0.9577 -4.15404,-1.40062 -1.3048,-0.21039 -2.8486,-0.4627 -3.43069,-0.56068 -4.25036,-0.71544 -10.85174,-0.30364 -13.15175,0.82042 -2.16668,1.0589 -1.72092,1.59584 2.03925,2.45642 4.43697,1.01548 10.95926,1.08666 15.03721,0.16411 z M 51.187529,195.1638 c -1.949253,-0.33264 -5.623489,-1.80138 -7.053292,-2.81949 L 43.07364,191.5891 v -5.02977 c 0,-4.77288 0.04054,-5.0656 0.79375,-5.73168 2.195396,-1.94141 5.698195,-3.12818 9.613194,-3.25701 3.539527,-0.11647 3.704167,-0.30038 3.704167,-4.13762 0,-2.82802 0.0279,-2.9233 1.126642,-3.84783 2.399194,-2.01879 6.432479,-2.8787 13.915644,-2.96686 8.262397,-0.0973 13.550245,1.21217 15.828643,3.91989 0.82222,0.97716 0.89336,1.28257 0.685768,2.94408 -0.127391,1.0196 -0.128601,2.32287 -0.0027,2.89615 0.220462,1.00376 0.333718,1.05714 3.060892,1.44281 3.323583,0.47002 5.690844,1.43173 7.25872,2.94888 l 1.12779,1.0913 -0.01,4.68239 c -0.008,3.9632 -0.10229,4.76631 -0.613288,5.22876 -0.943714,0.85405 -4.821018,2.19091 -8.866292,3.05703 -3.2338,0.69237 -4.307861,0.76305 -8.636702,0.56838 -5.273117,-0.23715 -7.192276,-0.61104 -8.72382,-1.69958 -0.862058,-0.61271 -1.056311,-0.63061 -1.940277,-0.17881 -0.540272,0.27614 -2.322224,0.83867 -3.959894,1.25008 -2.48549,0.62439 -3.943043,0.74115 -8.819445,0.70651 -3.213024,-0.0228 -6.556237,-0.1634 -7.429362,-0.3124 z m 7.055555,-5.11416 c 0,-1.92068 -0.01069,-1.94028 -1.058333,-1.94028 -1.047643,0 -1.058333,0.0196 -1.058333,1.94028 0,1.92068 0.01069,1.94028 1.058333,1.94028 1.047643,0 1.058333,-0.0196 1.058333,-1.94028 z m 4.366139,0.57757 c 0.37834,-2.28766 0.306078,-2.51785 -0.79041,-2.51785 -0.933434,0 -1.027334,0.12368 -1.232977,1.62401 -0.26415,1.92718 -0.203306,2.06558 0.935772,2.12856 0.745404,0.0412 0.906922,-0.14215 1.087615,-1.23472 z m 18.420133,0.47844 c 0.122065,-0.48634 0.117896,-1.43884 -0.0093,-2.11666 -0.189575,-1.01052 -0.387109,-1.23241 -1.09716,-1.23241 -0.812847,0 -0.865959,0.1172 -0.865959,1.91088 0,1.84861 0.215325,2.224 1.316196,2.29461 0.238838,0.0153 0.534122,-0.37007 0.656187,-0.85642 z m 4.307028,-1.32059 c 0.08326,-1.59637 -0.0045,-2.02848 -0.412119,-2.02848 -1.228891,0 -1.633958,0.43949 -1.633958,1.77278 0,1.8905 0.311933,2.5165 1.191428,2.39102 0.649204,-0.0926 0.762928,-0.37677 0.854649,-2.13532 z m -31.915538,0.0374 c 0.258654,-2.18393 0.142627,-2.4186 -1.195804,-2.4186 -1.032886,0 -1.037513,0.009 -1.037513,2.11666 0,2.09377 0.01092,2.11667 1.009194,2.11667 0.951764,0 1.021426,-0.10327 1.224123,-1.81473 z m 13.286246,1.28877 c 0.506739,-0.61059 0.176855,-3.70737 -0.394926,-3.70737 -1.185294,0 -1.719081,0.77063 -1.719081,2.48185 0,1.60901 0.06823,1.75148 0.838748,1.75148 0.461312,0 1.035178,-0.23668 1.275259,-0.52596 z m 22.933215,-1.59071 c 0,-2.02259 -0.0392,-2.11666 -0.881945,-2.11666 -0.842747,0 -0.881944,0.0941 -0.881944,2.11666 0,2.0226 0.0392,2.11667 0.881944,2.11667 0.842747,0 0.881945,-0.0941 0.881945,-2.11667 z m -13.26691,0.8531 c 0.41983,-1.09407 0.202914,-2.5361 -0.519672,-3.45472 -0.85461,-1.08646 -1.383681,-0.92647 -1.380895,0.41758 0.0052,2.52496 1.301943,4.59713 1.900567,3.03714 z m -27.369192,-1.70091 c 0.117386,-1.85042 -0.202641,-2.31221 -1.609037,-2.32178 -0.670141,-0.005 -0.79375,0.1833 -0.79375,1.20635 0,1.95133 0.576862,3.08894 1.499874,2.95784 0.680915,-0.0967 0.808713,-0.35748 0.902913,-1.84241 z m 44.370418,1.63616 c 0.21061,-0.14255 0.56297,-0.57668 0.783023,-0.96474 0.326036,-0.57495 0.40208,-0.59739 0.410822,-0.12122 0.01507,0.82106 1.401769,0.41333 1.744405,-0.5129 0.303157,-0.81952 0.08437,-2.36449 -0.334839,-2.36449 -0.726975,0 -1.399345,0.48259 -1.40424,1.00789 -0.0044,0.46893 -0.06451,0.48629 -0.314913,0.0909 -0.20489,-0.32352 -0.620425,-0.41068 -1.22932,-0.25786 -0.820034,0.20582 -0.91981,0.40233 -0.91981,1.81164 0,1.55374 0.357919,1.92466 1.264872,1.31079 z m -22.983671,-0.42689 c 0.820651,-0.31201 0.90491,-0.52552 0.90491,-2.29305 0,-1.46324 -0.126904,-1.94901 -0.509162,-1.94901 -0.839526,0 -1.607504,1.47007 -1.607504,3.0771 0,1.67985 -0.04038,1.64102 1.211756,1.16496 z m -4.091959,-5.24886 c 0.45318,-0.25381 0.754253,-0.53119 0.66905,-0.61639 -0.0852,-0.0852 -1.408487,-0.39416 -2.940631,-0.68657 -2.514601,-0.47991 -6.012966,-1.8814 -7.635192,-3.05876 -0.492293,-0.35728 -0.757246,-0.35905 -1.31813,-0.009 -0.386093,0.24112 -1.077327,0.4384 -1.536076,0.4384 -0.458749,0 -1.29434,0.14081 -1.85687,0.31291 -0.56253,0.1721 -1.697469,0.49597 -2.522087,0.71972 -0.824618,0.22374 -1.499306,0.56728 -1.499306,0.76342 0,0.54119 2.021332,1.27412 5.688403,2.0626 3.870327,0.83219 11.518681,0.87556 12.950839,0.0734 z m 26.015931,-0.44964 c 1.342363,-0.41299 2.584745,-0.88251 2.760848,-1.04338 0.645518,-0.5897 -0.538458,-1.27489 -3.288093,-1.90289 -2.54886,-0.58215 -2.909358,-0.59133 -3.974545,-0.1013 -1.597425,0.73489 -4.044142,1.45574 -8.1941,2.41414 -4.600658,1.06249 -3.808873,1.32809 4.052834,1.35952 5.372978,0.0215 6.528772,-0.0756 8.643056,-0.72609 z m -18.706735,-3.61003 c 0.115006,-0.45822 0.157718,-1.37103 0.09492,-2.02847 -0.105955,-1.10917 -0.203198,-1.19534 -1.348909,-1.19534 h -1.234723 l 0.07249,1.55674 c 0.09928,2.13191 0.293839,2.5002 1.320827,2.5002 0.63732,0 0.945035,-0.23403 1.095397,-0.83313 z m 3.77309,-0.31339 c -0.04851,-0.14552 -0.08819,-0.89959 -0.08819,-1.6757 0,-1.17592 -0.117593,-1.41111 -0.705556,-1.41111 -0.612772,0 -0.705556,0.23519 -0.705556,1.78843 0,1.65288 0.06016,1.77988 0.79375,1.67569 0.436563,-0.062 0.754063,-0.23179 0.705556,-0.37731 z m -11.029123,-0.88195 c -0.0079,-1.58795 -0.371604,-2.48153 -1.086132,-2.66838 -0.593375,-0.15517 -0.672939,0.0252 -0.672939,1.52548 0,1.03109 0.173743,1.77157 0.440972,1.8794 0.975404,0.39359 1.322747,0.19951 1.318099,-0.7365 z m 4.238151,-0.47589 c 0,-1.28261 -0.0694,-1.37619 -1.02059,-1.37619 -1.062228,0 -1.448855,0.5068 -1.448855,1.89921 0,0.65321 0.204905,0.78899 1.234723,0.81818 1.206084,0.0342 1.234722,0.003 1.234722,-1.3412 z m 10.378091,1.2319 c 0.69894,-0.26821 0.800226,-3.52314 0.117048,-3.76145 -0.98157,-0.34239 -1.322917,0.19251 -1.322917,2.07305 0,1.8942 0.14403,2.09587 1.205869,1.6884 z m -13.660529,-1.22755 c 0.06281,-0.41159 -0.04142,-0.62463 -0.244276,-0.49925 -0.194613,0.12027 -0.353842,0.55327 -0.353842,0.96221 0,0.89324 0.443541,0.54993 0.598118,-0.46296 z m -4.831451,-1.19174 c 0,-1.53736 -0.579944,-2.30547 -1.740697,-2.30547 -0.590066,0 -0.445112,2.70269 0.178395,3.32619 1.029881,1.02988 1.562302,0.68203 1.562302,-1.02072 z m 23.19885,-0.40522 c 0.05055,-0.56007 -0.064,-1.25643 -0.254541,-1.54747 -0.853919,-1.30429 -2.271047,1.38037 -1.621774,3.07234 0.336166,0.87604 1.764382,-0.28467 1.876315,-1.52487 z m -4.325239,-3.79557 c 0.970139,-0.31429 2.002014,-0.72506 2.293056,-0.9128 0.998123,-0.64388 -0.388461,-1.38188 -4.064424,-2.16327 -2.963643,-0.62997 -4.217597,-0.71456 -7.930021,-0.53495 -4.673423,0.22611 -8.575955,0.88841 -9.258866,1.57132 -0.700168,0.70017 0.389919,1.3829 3.438033,2.15328 2.380248,0.60158 3.678546,0.69328 8.290278,0.58558 3.773045,-0.0881 6.014833,-0.30485 7.231944,-0.69916 z m 32.965751,19.89124 c -4.71146,-0.62481 -9.70841,-1.80565 -10.99307,-2.5978 -0.42135,-0.25982 -0.59299,-0.6632 -0.47868,-1.12498 0.098,-0.39596 0.3432,-2.17637 0.54486,-3.95648 0.31123,-2.74747 0.28085,-3.45097 -0.20109,-4.65545 -1.03942,-2.59775 -4.193151,-4.65116 -8.968555,-5.83945 l -2.300229,-0.57239 0.126287,-1.32424 c 0.565754,-5.9325 -5.550555,-9.40886 -17.30231,-9.83423 l -4.843148,-0.1753 -0.267652,-1.27794 c -0.333956,-1.59451 -0.356616,-8.62402 -0.03767,-11.68488 0.623727,-5.98572 2.494617,-12.06669 5.265039,-17.113 2.242767,-4.0852 5.357621,-8.20505 11.076574,-14.65039 4.431523,-4.99439 9.528108,-10.89544 10.207913,-11.81917 0.228855,-0.31097 -0.01465,-0.84128 -0.79375,-1.72862 -0.985348,-1.12226 -1.123885,-1.53075 -1.123885,-3.31388 0,-1.11861 0.1612,-2.195037 0.358221,-2.392057 0.242444,-0.24244 0.176591,-0.72231 -0.203749,-1.48472 -1.019279,-2.04319 0.344379,-5.41664 2.732039,-6.75858 1.602074,-0.90042 1.787435,-0.46838 -1.956311,-4.55976 -6.014176,-6.57264 -8.935392,-11.472292 -8.11481,-13.610694 0.392855,-1.023764 2.459791,-0.391788 5.527624,1.6901 1.181011,0.801455 8.564922,3.692549 11.358372,4.447256 0.77611,0.209682 2.08781,0.382125 2.91488,0.383207 1.6536,0.0022 6.35796,-1.192262 6.92358,-1.757878 0.19625,-0.196252 0.58393,-0.356821 0.8615,-0.356821 0.27757,0 1.3124,-0.5803 2.29964,-1.289555 2.71945,-1.953731 5.22643,-2.988988 6.99816,-2.889886 0.944,0.0528 2.86096,0.720273 5.04947,1.758185 4.68504,2.221909 8.5519,3.479589 10.69832,3.479589 1.81569,0 4.25963,-0.835832 12.5146,-4.280012 2.2896,-0.95528 4.31366,-1.643705 4.49791,-1.529833 0.18425,0.113872 0.335,0.886691 0.335,1.717374 0,2.590623 -1.64669,5.22083 -6.69412,10.692298 -2.52712,2.73943 -4.59368,5.11358 -4.59236,5.27589 0.001,0.16231 0.55059,0.6684 1.22057,1.12464 1.59005,1.08278 2.80048,3.53758 2.47501,5.01943 -0.13242,0.60293 -0.62301,1.42858 -1.09019,1.83479 l -0.84942,0.73856 0.87483,0.91313 c 1.47812,1.542817 1.35601,3.733717 -0.31095,5.578847 l -1.20552,1.33437 1.11733,1.46853 c 1.96129,2.57779 7.36208,9.34149 10.0784,12.62172 8.01005,9.67294 12.03893,17.31822 13.47814,25.57638 0.73453,4.21473 0.87619,11.62153 0.28698,15.00503 l -0.38075,2.18642 -2.17689,0.226 c -6.80819,0.70679 -11.17273,4.37871 -11.17273,9.3997 v 1.29146 l -3.14809,0.38761 c -3.23964,0.39888 -7.18509,1.73908 -8.96902,3.04662 -0.55254,0.40498 -1.42567,1.45071 -1.94028,2.32383 -0.82467,1.39919 -0.95658,2.06874 -1.11205,5.64445 l -0.17639,4.05694 -3.35139,1.12501 c -3.38844,1.13745 -7.23649,1.86716 -13.47314,2.55491 -4.39242,0.48437 -5.79014,0.44528 -11.59305,-0.32428 z m 10.1906,-23.46384 c 0.0965,-0.0965 0.18892,-1.67649 0.20538,-3.51109 l 0.0299,-3.33564 1.3146,-0.22228 c 1.65282,-0.27946 6.59901,-2.66247 7.4032,-3.56676 1.8319,-2.05992 2.20619,-5.87816 0.85966,-8.76971 -1.36049,-2.92152 -3.86777,-4.69711 -9.68688,-6.85996 -6.57442,-2.44359 -9.23919,-4.01105 -9.23919,-5.43465 0,-1.02819 3.22169,-3.98891 4.82495,-4.43411 1.8867,-0.5239 4.15185,-0.46956 5.59706,0.13429 0.67492,0.282 2.07422,1.31388 3.10956,2.29306 1.03534,0.97918 2.11521,1.78033 2.39971,1.78033 1.06905,0 3.4715,-3.35608 3.4715,-4.84948 0,-0.42653 -1.00404,-1.3082 -2.91042,-2.55569 -2.97878,-1.94924 -4.79834,-2.78251 -6.13586,-2.8099 -1.00617,-0.0206 -1.26514,-0.83296 -0.98368,-3.08567 0.34771,-2.78301 -0.317,-3.6326 -2.84215,-3.6326 -2.2256,0 -2.89012,0.69632 -2.47951,2.59816 0.13133,0.6083 0.26573,1.72932 0.29867,2.49114 0.059,1.36483 0.0361,1.39124 -1.56554,1.80271 -3.34072,0.85825 -7.05395,3.50881 -8.3157,5.93588 -1.2778,2.45793 -0.88837,7.07485 0.78167,9.26733 1.16957,1.53543 3.09462,2.58268 9.37417,5.0996 2.98636,1.19696 6.06253,2.59707 6.83594,3.11135 2.80635,1.86608 2.46675,4.09232 -0.85672,5.61624 -4.01292,1.84004 -8.48439,0.65559 -11.72328,-3.1054 -0.83941,-0.97472 -1.8119,-1.77229 -2.16108,-1.77239 -1.11983,-3e-4 -2.68789,1.03786 -3.27112,2.1657 -0.52162,1.0087 -0.52028,1.21677 0.0169,2.62342 1.0147,2.65695 4.08814,4.70757 8.35374,5.57367 2.19533,0.44575 2.23977,0.47748 2.32503,1.66032 0.46527,6.45481 0.61188,6.74888 3.13013,6.27842 0.91512,-0.17097 1.7428,-0.3898 1.8393,-0.48629 z m 28.09071,-3.19211 c 0.80467,-0.38184 1.43096,-1.11807 2.08179,-2.44724 1.34811,-2.75322 1.14025,-4.41495 -0.55226,-4.41495 -0.58707,0 -4.86687,5.2753 -4.86687,5.99892 0,0.16136 -0.0964,0.54448 -0.21413,0.85139 -0.17152,0.44698 0.046,0.55802 1.09321,0.55802 0.71904,0 1.82526,-0.24576 2.45826,-0.54614 z M 77.977347,155.35018 c 0.001,-9.63223 2.183513,-16.10811 7.530862,-22.34538 1.380337,-1.61006 4.740056,-5.23735 7.46604,-8.06065 6.460785,-6.69142 10.476881,-12.22468 11.317161,-15.59243 0.23924,-0.95886 0.2211,-0.97075 -1.56008,-1.02305 -0.99117,-0.0291 -1.99158,-0.0688 -2.22312,-0.0882 -0.23154,-0.0194 -1.258652,1.14778 -2.282467,2.59374 -1.728372,2.44103 -3.637688,4.69848 -12.736554,15.05889 -6.146993,6.99926 -8.87389,11.79024 -10.530139,18.50076 -1.104064,4.47327 -1.562179,8.17573 -1.383791,11.18372 0.221492,3.73481 0.424965,4.25192 1.72261,4.37788 2.734382,0.26543 2.678959,0.36069 2.679478,-4.60528 z M 107.88268,121.2635 c 1.60381,-1.3728 4.22538,-6.10598 5.56749,-10.05195 l 0.82028,-2.41171 -0.7616,-0.20431 c -0.41888,-0.11237 -1.5029,-0.20648 -2.40894,-0.20913 l -1.64734,-0.005 -0.60296,1.85209 c -0.33162,1.01864 -1.6079,3.98674 -2.83618,6.59577 -2.37588,5.04671 -2.43232,5.66326 -0.51843,5.66326 0.57683,0 1.51724,-0.48414 2.38768,-1.2292 z m 36.0598,-17.692 c 0.86854,-1.10417 0.9529,-2.43768 0.17314,-2.7369 -0.30691,-0.11778 -10.62264,-0.21414 -22.92384,-0.21414 H 98.825971 l -0.227883,0.90796 c -0.357369,1.42387 0.345284,2.54954 1.695372,2.71603 0.6407,0.079 10.55932,0.16907 22.04138,0.20012 l 20.87648,0.0565 z m 0.73116,-7.688337 c 0,-0.91085 -0.6286,-1.70818 -1.87959,-2.38411 -1.04178,-0.56289 -40.89167,-0.56159 -42.28438,10e-4 -1.140424,0.46099 -1.817646,1.59849 -1.516523,2.54725 0.215301,0.67835 0.675388,0.69223 22.950093,0.69223 h 22.7304 z M 58.487497,122.88744 c -0.92709,-3.33456 -3.12057,-5.33363 -5.852328,-5.33363 -1.311901,0 -2.153196,-0.81789 -2.153196,-2.0933 0,-0.93216 0.10465,-0.99686 1.966306,-1.21566 2.54434,-0.29904 4.186115,-1.00043 4.9031,-2.09469 0.315857,-0.48206 0.768767,-2.04313 1.006468,-3.46905 l 0.432182,-2.59258 1.30214,-0.10878 c 1.455491,-0.12159 1.449742,-0.13232 1.854854,3.46017 0.120339,1.06715 0.448927,2.29416 0.730197,2.72668 0.706747,1.08681 2.439713,1.91427 4.548058,2.17163 l 1.777529,0.21697 0.106064,1.44989 0.106064,1.44989 -2.222731,0.42895 c -3.734247,0.72065 -4.773038,1.76302 -5.384009,5.40252 -0.122145,0.7276 -0.33395,1.33597 -0.470679,1.35192 -0.136729,0.016 -0.658612,0.0972 -1.15974,0.18056 -0.845597,0.14064 -0.952803,0.002 -1.490279,-1.93149 z m 117.804733,0.49304 c -5.94241,-2.09478 -7.85838,-9.73512 -3.52736,-14.06614 2.94025,-2.94025 7.19153,-3.29808 10.54777,-0.88781 2.02332,1.45304 3.69433,4.61821 3.69433,6.99769 0,2.055 -1.41237,5.00056 -2.96587,6.18548 -2.39027,1.82314 -5.55122,2.54549 -7.74887,1.77078 z m 4.27977,-4.41366 c 1.40977,-0.85954 2.55133,-2.6557 2.5531,-4.01707 0.002,-1.55155 -2.67635,-4.09872 -4.30982,-4.09872 -2.80639,0 -5.17826,3.17535 -4.17717,5.5922 0.46585,1.12465 3.22248,3.2283 4.22726,3.22592 0.30628,-7.2e-4 1.07427,-0.31677 1.70663,-0.70233 z M 73.575197,102.11977 c -0.828544,-4.935567 -2.587854,-6.770977 -6.512668,-6.794407 -1.686032,-0.0101 -2.168607,-0.39866 -2.23579,-1.80039 l -0.05727,-1.19478 2.577947,-0.2302 c 4.47872,-0.39993 5.524288,-1.27855 6.145312,-5.16408 0.433884,-2.71467 0.742879,-3.24878 1.879498,-3.24878 0.890789,0 1.030858,0.30162 1.392534,2.99861 0.512406,3.82097 1.913138,5.10664 5.872299,5.38992 2.17349,0.15551 2.416647,0.24817 2.412316,0.91929 -0.01254,1.94282 -0.304358,2.22878 -2.509679,2.45928 -3.998434,0.41792 -5.19921,1.55756 -5.981656,5.677127 -0.352119,1.85391 -0.733372,2.29724 -1.983002,2.30592 -0.625524,0.004 -0.821235,-0.25354 -0.999845,-1.31751 z m 91.474563,-2.354057 c -2.95054,-1.05306 -4.89411,-3.26634 -5.58694,-6.36222 -0.52232,-2.33395 -0.25151,-3.84664 1.05844,-5.91221 1.39173,-2.19453 4.88276,-3.98485 7.24997,-3.71803 5.16995,0.58273 8.79393,4.95887 7.92391,9.56852 -0.98407,5.21396 -5.83451,8.140947 -10.64538,6.42394 z m 5.26074,-4.97227 c 2.09398,-2.18541 2.08022,-3.28887 -0.0667,-5.34595 -2.00954,-1.92548 -3.2824,-2.02785 -5.23203,-0.4208 -1.80193,1.4853 -2.15751,2.49891 -1.42106,4.05087 0.78699,1.65847 2.85952,3.30957 4.1543,3.30957 0.7708,0 1.43199,-0.41074 2.56546,-1.59369 z M 103.05055,75.006721 c -3.568394,-0.958824 -4.361248,-2.081438 -3.567091,-5.050702 0.901441,-3.370385 3.597541,-5.449082 7.090181,-5.466528 2.59701,-0.01297 4.90901,1.139569 7.53864,3.758054 2.00592,1.997423 2.05114,2.083287 1.448,2.749742 -1.42062,1.569774 -8.15829,4.630888 -10.02081,4.55274 -0.30433,-0.01277 -1.42434,-0.257257 -2.48892,-0.543306 z m 34.74392,-0.54664 c -1.26062,-0.461586 -8.21045,-3.431143 -9.06491,-3.873297 -1.18658,-0.614013 -0.0964,-2.260174 2.76376,-4.173144 4.13333,-2.764542 6.71917,-3.08824 9.87889,-1.236653 2.53072,1.482998 4.581,5.489528 3.67524,7.181948 -0.4671,0.872788 -3.1879,2.187353 -4.87773,2.356693 -0.7243,0.07258 -1.79316,-0.04241 -2.37525,-0.255547 z m -20.01706,-5.994867 c -0.49721,-0.848414 -1.71333,-2.288083 -2.7025,-3.199265 -0.98917,-0.911182 -1.79849,-1.79882 -1.79849,-1.97253 0,-0.842434 1.80725,-2.830777 3.48947,-3.83913 2.30098,-1.379244 4.97954,-1.789579 7.70315,-1.180063 1.51668,0.339417 2.30278,0.790065 3.65975,2.098011 0.99094,0.955134 1.72818,1.981584 1.72818,2.406107 0,0.47948 -0.61451,1.191457 -1.74392,2.020522 -0.95916,0.704087 -2.36947,2.027295 -3.13401,2.940463 -0.8627,1.030396 -1.70678,1.683223 -2.22483,1.720714 -0.45911,0.03323 -1.5633,0.17006 -2.45377,0.304076 l -1.61903,0.243666 z"
       id="path1" />
  </g>
</svg>
