<?xml version="1.0" encoding="UTF-8" standalone="no"?>
<!-- Created with Inkscape (http://www.inkscape.org/) -->

<svg
   version="1.1"
   id="svg1"
   width="257.52307"
   height="286.93436"
   viewBox="0 0 257.52307 286.93436"
   sodipodi:docname="cdenas.svg"
   inkscape:version="1.3 (0e150ed6c4, 2023-07-21)"
   xmlns:inkscape="http://www.inkscape.org/namespaces/inkscape"
   xmlns:sodipodi="http://sodipodi.sourceforge.net/DTD/sodipodi-0.dtd"
   xmlns="http://www.w3.org/2000/svg"
   xmlns:svg="http://www.w3.org/2000/svg">
  <defs
     id="defs1" />
  <sodipodi:namedview
     id="namedview1"
     pagecolor="#ffffff"
     bordercolor="#000000"
     borderopacity="0.25"
     inkscape:showpageshadow="2"
     inkscape:pageopacity="0.0"
     inkscape:pagecheckerboard="0"
     inkscape:deskcolor="#d1d1d1"
     showgrid="false"
     inkscape:zoom="1.7913505"
     inkscape:cx="116.39263"
     inkscape:cy="134.25625"
     inkscape:window-width="1920"
     inkscape:window-height="1001"
     inkscape:window-x="-9"
     inkscape:window-y="-9"
     inkscape:window-maximized="1"
     inkscape:current-layer="g1" />
  <g
     inkscape:groupmode="layer"
     inkscape:label="Image"
     id="g1"
     transform="translate(-181.98561,-269.07077)">
    <path
       style="fill:#000000"
       d="m 280.73283,545.13702 c -14.58187,-0.51259 -24.35558,-2.03375 -30.34458,-4.72278 -1.77798,-0.7983 -5.5977,-2.33202 -8.48826,-3.40826 -7.01311,-2.61119 -11.65552,-5.28733 -17.26619,-9.9532 -7.13705,-5.93521 -10.9387,-10.89505 -15.40953,-20.10414 -3.80224,-7.83192 -3.74714,-7.21837 -3.85922,-42.97088 -0.0997,-31.79358 -0.0764,-32.52877 1.17122,-37.00975 1.31335,-4.71704 4.29852,-10.93758 6.89529,-14.36849 0.81563,-1.07763 2.9148,-3.29397 4.66481,-4.9252 2.67249,-2.49108 3.11828,-3.15323 2.78482,-4.13638 -0.21836,-0.64379 -0.38756,-15.19022 -0.37602,-32.3254 0.0236,-35.02477 0.12297,-36.12729 4.06216,-45.0719 4.58793,-10.41771 11.43778,-18.79697 21.33988,-26.10458 8.28034,-6.11077 15.48763,-9.94494 25.77436,-13.71157 14.40462,-5.27445 24.3607,-6.77735 42.33656,-6.39082 14.96794,0.32185 20.65917,1.30221 34.40521,5.92662 7.46349,2.51085 11.51171,4.36593 17.55437,8.04424 9.97767,6.07363 16.38741,11.40953 22.62928,18.83812 6.92912,8.24652 11.84645,19.53198 12.68081,29.10295 0.18789,2.15528 0.46065,17.31359 0.60612,33.68514 0.29458,33.15178 -0.15875,29.43514 4.17487,34.22769 2.45913,2.71955 6.34026,9.66893 7.66596,13.72631 2.50136,7.65558 2.5644,8.80946 2.35501,43.10547 -0.19407,31.78727 -0.24222,33.01002 -1.45737,37.00974 -3.52852,11.61429 -12.11135,22.66714 -21.84225,28.12815 -7.67203,4.30557 -19.57354,8.8905 -28.07735,10.8165 -9.33885,2.11512 -15.04867,2.41903 -48.65083,2.58943 -17.02222,0.0863 -32.92032,0.0877 -35.32913,0.003 z m 74.74593,-10.66909 c 6.82806,-1.05028 18.16566,-4.72803 23.35687,-7.5766 3.86784,-2.12241 11.17218,-7.90079 13.62346,-10.77739 3.84499,-4.5121 6.73314,-9.28708 8.39482,-13.87913 l 1.63303,-4.51288 v -32.65565 -32.65566 l -1.59151,-5.0072 c -3.03937,-9.56247 -9.54673,-17.05569 -19.88403,-22.89645 -3.93336,-2.22241 -13.02986,-5.63778 -19.10917,-7.17471 l -3.79569,-0.9596 -45.78765,0.0902 -45.78765,0.0902 -5.58646,1.05664 c -3.07255,0.58116 -8.22578,2.01785 -11.45161,3.19265 -4.73174,1.72323 -6.88642,2.85283 -11.15002,5.84545 -2.90668,2.04019 -6.36748,4.75574 -7.69065,6.03454 -3.05153,2.94921 -6.73009,8.41647 -8.95511,13.30957 -3.34324,7.35222 -3.387,7.92549 -3.13211,41.03373 0.26459,34.36873 0.14221,33.40309 5.23291,41.29008 5.30193,8.21425 12.77703,14.79624 21.89749,19.28124 9.89583,4.86629 17.21604,6.8815 26.56984,7.31452 10.57325,0.48948 79.53734,0.1219 83.21324,-0.44353 z M 245.87899,510.36446 c -1.97973,-0.64201 -4.53353,-3.167 -5.16689,-5.1086 -1.23284,-3.77942 5.46792,-8.35258 11.08686,-7.5666 2.85452,0.39929 7.19498,3.41676 7.67836,5.33798 0.58357,2.3194 -1.39432,5.04647 -4.84277,6.67711 -3.03882,1.43694 -5.7336,1.64011 -8.75556,0.66011 z m 122.09698,-0.1922 c -8.85637,-2.99896 -5.9306,-12.23262 3.87601,-12.23262 2.92498,0 7.54209,1.81888 8.69521,3.42542 2.1807,3.03817 -0.65222,7.3177 -5.9332,8.96294 -2.76079,0.8601 -3.70339,0.83799 -6.63802,-0.15574 z m -57.02359,-1.67386 c -24.20804,-0.0997 -28.46769,-0.2103 -28.46769,-0.73919 0,-0.34207 0.40092,-1.91093 0.89092,-3.48634 0.49001,-1.57541 1.66113,-7.4166 2.60248,-12.98043 0.94135,-5.56382 2.00675,-11.78148 2.36756,-13.81701 0.3608,-2.03554 0.85248,-4.81308 1.09261,-6.17232 l 0.43659,-2.47133 -2.76799,-1.57394 c -11.14723,-6.33853 -15.1905,-22.03856 -8.29351,-32.20368 5.33784,-7.86716 15.21281,-12.79932 27.43281,-13.70159 12.48835,-0.9221 22.57591,1.78439 31.42204,8.4305 6.26194,4.7046 9.63522,10.7749 9.63522,17.33877 0,7.21737 -3.26572,13.16384 -10.03541,18.27324 -3.47125,2.61992 -3.8773,3.10276 -3.66377,4.35669 0.13208,0.77563 0.65334,4.34924 1.15836,7.94136 1.10026,7.82607 2.9026,17.09372 5.2434,26.96164 0.7762,3.27213 0.72998,4.30203 -0.18244,4.06547 -0.22192,-0.0575 -13.21396,-0.15737 -28.87118,-0.22184 z m 14.74254,-9.688 c 10e-4,-0.11977 -0.92651,-4.52828 -2.06166,-9.7967 -1.93118,-8.9629 -3.57817,-23.00659 -2.88821,-24.62747 0.16631,-0.39071 1.78485,-1.47166 3.59676,-2.40213 7.14849,-3.67098 9.7887,-7.70474 9.80958,-14.98729 0.0155,-5.39403 -0.94819,-7.29093 -5.4144,-10.65806 -6.57778,-4.95907 -13.48783,-6.86258 -21.43432,-5.90452 -7.88895,0.95112 -13.21015,3.70846 -16.91124,8.76308 -1.4705,2.00827 -1.76093,2.94596 -1.9635,6.33935 -0.24871,4.16635 0.45956,6.6434 2.96059,10.35409 1.64124,2.43505 6.44706,6.0733 9.28093,7.02613 l 2.41516,0.81205 -0.39339,6.11128 c -0.21637,3.36121 -0.92196,8.83771 -1.56798,12.17 -1.19679,6.17321 -2.85873,15.78913 -2.86717,16.58936 -0.003,0.2871 4.80816,0.43983 13.71596,0.43541 7.54635,-0.004 13.72165,-0.10481 13.72289,-0.22458 z M 245.5732,429.55981 c -2.8547,-1.12403 -5.13309,-4.02039 -5.13309,-6.52533 0,-4.79209 7.87312,-8.40733 13.60589,-6.24764 7.04217,2.65297 8.35627,7.80733 2.9429,11.54305 -0.9119,0.6293 -2.23198,1.36405 -2.93351,1.63278 -1.94422,0.74478 -6.06455,0.54909 -8.48219,-0.40286 z m 120.94102,-0.0969 c -4.66058,-2.32147 -5.40158,-7.58162 -1.50734,-10.7002 2.02986,-1.62555 4.48657,-2.35907 7.82606,-2.33669 8.88801,0.0596 12.50858,6.75169 6.37358,11.78072 -1.94583,1.59504 -4.13159,2.24452 -7.55371,2.24452 -2.30737,0 -3.68718,-0.26539 -5.13859,-0.98835 z m 22.55527,-60.07772 c -0.39628,-29.05032 -0.70268,-32.44724 -3.59881,-39.89896 -1.77267,-4.56107 -6.85103,-12.04349 -10.86103,-16.00256 -4.22646,-4.17279 -12.13809,-10.01241 -17.67959,-13.04941 -9.41172,-5.15805 -24.47935,-9.89581 -35.11972,-11.04278 -10.20198,-1.09972 -24.9128,-0.0857 -34.94601,2.40894 -13.51932,3.36136 -27.47278,10.89786 -37.43573,20.21967 -8.1806,7.65415 -14.23732,19.11735 -15.90732,30.10681 -0.64074,4.21638 -0.88028,42.37754 -0.30747,48.98365 l 0.38702,4.46358 2.39772,-1.20326 c 3.71083,-1.86222 7.39104,-3.34297 10.39232,-4.18139 l 2.73903,-0.76516 0.2154,-24.66018 0.21541,-24.66019 1.57004,-4.05573 c 5.02878,-12.9903 13.69352,-21.67715 28.96791,-29.04179 5.20517,-2.50971 12.53514,-4.80281 18.30081,-5.72522 5.62285,-0.89956 17.47173,-0.90272 23.35897,-0.006 20.09118,3.05941 36.36772,12.72286 44.49997,26.41983 4.37931,7.37597 5.71708,15.58094 5.53729,33.96188 -0.0621,6.34608 -0.0799,15.27428 -0.0396,19.84044 l 0.0733,8.3021 3.35772,0.77408 c 3.72263,0.85819 9.42305,3.11281 12.11702,4.79249 0.96352,0.60075 1.83808,1.09932 1.94346,1.10793 0.10538,0.009 0.0252,-12.18123 -0.17814,-27.08853 z m -30.24211,-6.42228 c -0.24251,-24.98637 -0.26428,-25.18225 -3.43611,-30.91402 -3.43622,-6.20956 -7.87697,-10.3592 -15.97121,-14.92423 -8.16975,-4.60761 -15.60723,-6.67065 -25.7184,-7.1339 -23.09055,-1.05791 -43.43105,10.31055 -49.98351,27.93615 -1.2454,3.35004 -1.30292,4.34212 -1.50386,25.93861 l -0.20893,22.45534 48.52406,-0.0318 48.52405,-0.0318 z m -48.1732,-4.02753 c -0.32295,-0.29935 -1.38835,-1.73684 -2.36756,-3.19444 -2.13614,-3.17975 -5.04657,-5.19918 -8.42168,-5.84347 -3.87101,-0.73896 -3.94934,-0.77643 -3.94934,-1.88918 0,-1.28562 0.554,-1.61614 4.82544,-2.87889 4.01638,-1.18735 5.62588,-2.50187 7.40403,-6.04712 2.3432,-4.67182 3.8029,-4.67601 6.19018,-0.0178 2.04664,3.99355 4.28257,5.79357 8.44216,6.79632 2.7206,0.65585 3.23914,0.95075 3.39093,1.92841 0.16041,1.03324 -0.12159,1.22865 -2.69161,1.86513 -4.17261,1.03338 -7.08988,3.11334 -9.42543,6.72017 -2.08679,3.22267 -2.41564,3.47057 -3.39712,2.56084 z"
       id="path1" />
  </g>
</svg>
