<?xml version="1.0" encoding="UTF-8" standalone="no"?>
<!-- Created with Inkscape (http://www.inkscape.org/) -->

<svg
   width="129.61877mm"
   height="144.58012mm"
   viewBox="0 0 129.61877 144.58012"
   version="1.1"
   id="svg1"
   inkscape:version="1.3 (0e150ed6c4, 2023-07-21)"
   sodipodi:docname="client.svg"
   xmlns:inkscape="http://www.inkscape.org/namespaces/inkscape"
   xmlns:sodipodi="http://sodipodi.sourceforge.net/DTD/sodipodi-0.dtd"
   xmlns="http://www.w3.org/2000/svg"
   xmlns:svg="http://www.w3.org/2000/svg">
  <sodipodi:namedview
     id="namedview1"
     pagecolor="#ffffff"
     bordercolor="#000000"
     borderopacity="0.25"
     inkscape:showpageshadow="2"
     inkscape:pageopacity="0.0"
     inkscape:pagecheckerboard="0"
     inkscape:deskcolor="#d1d1d1"
     inkscape:document-units="mm"
     inkscape:zoom="0.70110129"
     inkscape:cx="221.79391"
     inkscape:cy="367.27931"
     inkscape:window-width="1920"
     inkscape:window-height="1001"
     inkscape:window-x="-9"
     inkscape:window-y="-9"
     inkscape:window-maximized="1"
     inkscape:current-layer="layer1" />
  <defs
     id="defs1" />
  <g
     inkscape:label="Calque 1"
     inkscape:groupmode="layer"
     id="layer1"
     transform="translate(-46.480969,-51.240888)">
    <path
       style="display:inline; fill:currentColor" 
       d="m 109.20756,195.48412 c -1.39025,-0.93043 -9.00889,-8.04349 -11.934485,-11.14249 -6.188601,-6.55542 -12.105557,-11.85268 -13.239256,-11.85268 -1.665565,0 0.338826,3.81113 4.752167,9.03573 1.948264,2.30639 3.543627,4.3125 3.54525,4.45802 0.0044,0.39308 -39.779091,0.32965 -40.022262,-0.0638 -0.11163,-0.18062 -0.06008,-0.41671 0.11455,-0.52464 0.174632,-0.10793 0.760323,-1.46827 1.301535,-3.02299 0.541213,-1.55471 1.080672,-2.82675 1.198798,-2.82675 0.118126,0 0.247767,-0.39863 0.28809,-0.88585 0.207796,-2.51074 4.628707,-11.74451 5.395964,-11.27032 0.176534,0.1091 0.228352,-0.043 0.11515,-0.33799 -0.64421,-1.67879 12.597696,-12.34987 15.304717,-12.33341 1.704488,0.0104 1.830688,-0.22889 1.837117,-3.48285 0.0049,-2.46076 -0.299381,-3.31511 -0.858423,-2.41056 -0.501704,0.81177 -5.775193,3.50771 -6.493801,3.31979 -0.572083,-0.1496 -0.758402,-0.0374 -0.765049,0.46074 -0.0052,0.392 -0.933054,1.35497 -2.292546,2.37938 -9.176724,6.9149 -15.973535,18.56648 -16.571844,28.40862 -0.157898,2.59741 -0.392851,2.84228 -2.734463,2.84983 -1.984204,0.006 -1.960454,0.11341 -1.1541,-5.2004 1.65056,-10.87705 6.376038,-19.31331 14.824239,-26.46527 2.570989,-2.17652 2.595671,-2.1956 2.839884,-2.1956 0.123106,0 0.627465,-0.3175 1.120798,-0.70555 1.105124,-0.8693 1.547659,-0.89963 1.286635,-0.0882 -0.161911,0.50332 -0.131583,0.52273 0.164183,0.10504 0.199529,-0.28178 0.291289,-0.628 0.203913,-0.76937 -0.08738,-0.14138 -0.0085,-0.34999 0.17529,-0.46357 0.569291,-0.35185 0.821859,0.50822 0.33576,1.14335 -0.253367,0.33105 -0.02891,0.21705 0.498796,-0.25333 1.076095,-0.95921 1.211332,-1.25717 0.435459,-0.95944 -0.818471,0.31407 0.06848,-0.93598 0.999738,-1.40902 0.417444,-0.21204 1.711489,-0.88113 2.875655,-1.48686 1.234093,-0.64212 2.656245,-1.1032 3.410731,-1.1058 2.66236,-0.009 3.380449,-1.27574 1.175381,-2.0731 l -1.234723,-0.44648 v -2.40044 c 0,-1.5713 0.289885,-3.28962 0.839249,-4.97475 l 0.839249,-2.57433 -1.022557,-0.86042 c -2.114534,-1.77926 -3.771204,-5.58557 -4.027195,-9.25273 -0.229073,-3.28154 -0.544929,-6.03236 -0.755728,-6.58169 -0.14273,-0.37195 -1.525628,-0.47386 -6.430065,-0.47386 -8.833085,0 -11.478527,-0.9094 -11.905486,-4.09261 -0.211605,-1.57764 -0.09788,-1.69143 3.588922,-3.59099 3.270749,-1.68519 14.142157,-4.66484 18.956245,-5.19555 1.112601,-0.12266 2.092181,-0.33509 2.176843,-0.47208 0.291961,-0.4724 1.263949,-8.70483 1.380925,-11.696 l 0.117268,-2.99861 2.604822,-0.17639 2.604823,-0.17639 0.280359,-1.41111 c 0.154198,-0.77611 0.426469,-1.72861 0.605048,-2.11666 0.328686,-0.71425 0.587382,-1.84457 0.919525,-4.01769 0.100495,-0.65751 0.25577,-1.31367 0.345058,-1.45814 0.08929,-0.14447 0.254541,-0.87651 0.36723,-1.62676 0.11269,-0.75024 0.601325,-2.79283 1.085856,-4.53908 0.484531,-1.74625 1.168888,-4.530465 1.520792,-6.187145 1.411114,-6.64318 3.257446,-8.356464 13.778259,-12.785385 4.99214,-2.101525 6.52174,-2.474823 11.99445,-2.927234 2.95149,-0.24399 10.4015,0.637195 12.1682,1.439248 0.58353,0.264917 4.15659,1.512023 7.94013,2.771346 3.78354,1.259324 9.41917,3.164272 12.52361,4.233218 3.10445,1.068947 7.62882,2.516067 10.05417,3.215824 4.37722,1.262909 5.92232,2.127986 5.54712,3.105748 -0.22342,0.582215 -0.84556,0.756136 -11.19156,3.128608 -12.49579,2.865445 -15.98599,3.542601 -17.10539,3.318722 -1.29475,-0.258949 -6.00816,4.31726 -5.64034,5.47615 0.10868,0.34243 0.26741,0.91309 0.35274,1.26813 0.0853,0.35505 0.46259,1.7568 0.83839,3.11499 0.37579,1.3582 0.78438,3.21746 0.90797,4.13169 l 0.22471,1.66225 3.06721,0.10164 3.06721,0.10164 0.44114,4.93889 c 0.24263,2.71639 0.59982,5.39914 0.79375,5.96167 0.19393,0.56253 0.35504,1.51503 0.35801,2.11667 0.007,1.38998 0.30579,1.82612 1.40571,2.05097 10.37104,2.12012 21.17199,5.68504 22.359,7.37974 2.51953,3.59712 -2.42179,5.93921 -12.5486,5.94778 -3.97011,0.003 -3.71128,-0.21584 -3.9854,3.37511 -0.26128,3.42274 -0.77729,5.34704 -1.74163,6.49489 -0.6177,0.73523 -0.62809,0.79112 -0.0666,0.35791 1.18559,-0.91469 -1.08752,3.09633 -2.78039,4.90615 -1.45184,1.55213 -1.50511,1.68351 -1.08955,2.68718 1.56431,3.77816 1.56972,8.93238 0.0101,9.64298 -1.43029,0.65168 -1.04407,1.01725 3.459,3.27407 16.23713,8.13761 24.61278,19.60572 26.53396,36.33084 l 0.2273,1.97873 -3.28237,0.23419 c -4.59593,0.32792 -40.8532,0.19428 -40.8532,-0.15057 0,-0.15553 0.37028,-0.73153 0.82283,-1.27999 5.14194,-6.23167 7.56475,-13.20548 3.27267,-9.42005 -0.79731,0.7032 -2.23708,1.77476 -3.19948,2.38125 -1.10739,0.69785 -3.24448,2.8718 -5.82084,5.9212 -3.87736,4.58929 -5.30094,6.00917 -10.62475,10.59714 -2.29508,1.97787 -2.33008,1.99321 -3.20761,1.40592 z m 3.15335,-7.56114 c 6.09647,-5.48477 7.55694,-7.31396 9.08373,-11.37708 0.51037,-1.3582 1.07493,-2.7451 1.25458,-3.08202 0.17965,-0.33692 0.32663,-1.95276 0.32663,-3.59077 0,-3.13743 0.40562,-4.08693 1.7459,-4.08693 1.18522,0 2.47286,3.06401 2.48325,5.90902 0.002,0.63059 0.11826,1.14653 0.25768,1.14653 0.52404,0 3.97984,-3.70452 3.97984,-4.26628 0,-0.32242 0.22735,-0.77489 0.50521,-1.0055 0.27787,-0.23061 0.92764,-1.79786 1.44394,-3.48278 0.5163,-1.68492 1.12045,-3.53974 1.34256,-4.12183 0.2221,-0.58208 0.36608,-1.17739 0.31995,-1.32291 -0.0461,-0.14552 0.15122,-0.26459 0.43857,-0.26459 0.28734,0 0.62673,-0.43656 0.75419,-0.97014 0.12747,-0.53357 0.38166,-1.16087 0.56488,-1.39398 1.08649,-1.38242 -0.76076,-13.09849 -2.35244,-14.92016 -1.7507,-2.00366 -0.39646,-2.71851 1.91399,-1.01033 2.28115,1.68653 2.73658,0.3164 1.42371,-4.28316 -1.92845,-6.75624 -2.00561,-9.34862 -0.27825,-9.34862 0.81597,0 1.31403,-5.11707 0.76516,-7.86138 -0.2851,-1.42553 -48.19384,-2.61432 -53.985239,-1.33958 -1.465047,0.32248 -1.589536,0.96426 -1.717065,8.85217 -0.106441,6.58355 -0.284929,7.772 -1.816565,12.09551 -1.084562,3.06151 -1.065459,3.09613 1.317743,2.3884 3.570507,-1.06033 3.89806,-0.87154 2.629853,1.51575 -2.606543,4.90661 -3.131278,11.43123 -1.266383,15.74636 0.167708,0.38805 0.97088,2.40859 1.784827,4.49009 1.324006,3.38586 5.01521,9.72122 6.02897,10.34776 0.674587,0.41692 1.100468,-0.44191 1.257682,-2.53622 0.399035,-5.31572 3.343228,-5.73105 3.776748,-0.53278 0.835517,10.01857 11.579019,22.29756 16.016349,18.30545 z m 16.133,-35.55374 c -0.38806,-0.17403 -2.00866,-0.80729 -3.60135,-1.40724 -3.04865,-1.14841 -7.20001,-3.66928 -10.15698,-6.16772 -2.57286,-2.17389 -4.81602,-3.49847 -5.30164,-3.13061 -0.22509,0.1705 -2.34793,1.77793 -4.71744,3.57207 -6.123124,4.63629 -14.594077,8.24501 -15.245986,6.49495 -0.419885,-1.12719 0.332542,-9.5307 0.791604,-8.84107 0.226597,0.34041 0.262369,0.20466 0.114458,-0.43435 -0.239345,-1.03403 1.477989,-5.77929 2.703967,-7.47147 l 0.719175,-0.99266 -1.638855,-1.75207 C 89.62853,129.5318 88.112506,125.3019 88.103518,120.91856 l -0.0027,-1.29957 22.375512,0.008 c 17.14704,0.006 22.4137,0.10707 22.53894,0.43346 0.29105,0.75845 -0.0369,3.54431 -0.43281,3.67627 -0.21144,0.0705 -0.38441,0.60862 -0.38441,1.19589 0,1.53451 -2.00294,5.09861 -4.07329,7.24818 -1.39688,1.45031 -1.68999,1.94411 -1.36114,2.29306 2.13367,2.26408 5.60972,18.00568 3.82475,17.32072 -0.27885,-0.107 -0.507,-0.032 -0.507,0.16657 0,0.19862 0.19844,0.4412 0.44097,0.53906 0.24254,0.0979 0.0441,0.17973 -0.44097,0.18191 -0.48507,0.002 -1.19944,-0.13841 -1.5875,-0.31243 z m -31.044446,-7.68549 c 1.552222,-0.93406 4.162026,-2.69215 5.799566,-3.90686 6.60865,-4.9022 6.41431,-4.92334 15.62073,1.69949 6.87161,4.94324 7.635,4.97341 6.42056,0.25377 -2.09357,-8.1362 -6.24589,-11.75451 -13.91567,-12.12602 -9.17102,-0.44422 -13.892634,2.5658 -16.339625,10.41646 -1.8806,6.03352 -1.779502,6.18691 2.414439,3.66316 z m -28.575,-32.67998 c 2.910417,-0.0984 6.164792,-0.32476 7.231944,-0.50312 1.067153,-0.17836 4.639028,-0.50562 7.9375,-0.72726 9.027701,-0.60659 10.401372,-1.13189 8.30888,-3.17736 -1.33691,-1.30687 -4.720511,-1.45843 -11.808277,-0.52891 -2.296605,0.30119 -4.671262,0.60415 -5.277013,0.67325 -2.154282,0.24574 -12.20844,2.3971 -14.211144,3.04086 -2.30339,0.74041 -1.848827,1.73388 0.704551,1.53983 1.002041,-0.0761 4.203142,-0.21893 7.113559,-0.31729 z m 49.829866,-5.95695 c 0.48598,-0.30252 0.61659,-17.47782 0.14205,-18.67955 -0.22933,-0.58074 -0.96734,-0.63736 -9.1964,-0.70556 l -8.94706,-0.0741 0.22375,3.88055 c 0.12306,2.13431 0.22447,6.60729 0.22536,9.93996 l 0.002,6.05941 8.55486,-0.0731 c 4.70518,-0.0402 8.75329,-0.19661 8.99584,-0.34758 z m -10.98682,-3.52396 c -2.5504,-0.76987 -3.77878,-4.81031 -2.89488,-9.52193 0.3312,-1.76543 4.36873,-2.81827 8.45681,-2.20522 l 1.63253,0.24481 v 1.90843 1.90843 l -2.91042,-0.078 -2.91042,-0.078 -0.10791,1.48764 c -0.12903,1.77888 0.32569,1.99122 3.86563,1.80511 l 2.2395,-0.11775 0.11241,1.1715 c 0.27551,2.87124 -3.56901,4.65647 -7.48325,3.47491 z m -10.259647,-2.12202 c 0.129556,-1.03693 0.101291,-3.29685 -0.06281,-5.02205 l -0.298367,-3.13673 -1.411111,-0.24928 c -2.568209,-0.45368 -10.76814,-0.34009 -10.902551,0.15104 -0.573758,2.09645 -1.344351,6.13451 -1.51473,7.9375 l -0.208357,2.20486 h 7.081185 7.081184 z m 36.415907,1.32717 1.49931,-0.19062 -4.9e-4,-1.65408 c -2.6e-4,-0.90974 -0.23817,-3.00345 -0.52868,-4.65269 -0.29051,-1.64924 -0.52842,-3.0383 -0.52868,-3.0868 -0.002,-0.37514 -10.23566,-0.0233 -10.26247,0.35277 -0.10068,1.41256 -0.20673,9.29026 -0.12708,9.44033 0.11628,0.21909 7.86095,0.0565 9.94809,-0.20891 z M 92.901239,87.5523 c 0.214865,-0.14255 0.593298,-1.1323 0.840962,-2.19946 0.247664,-1.06715 0.896857,-3.60715 1.44265,-5.64444 0.545794,-2.03729 1.244685,-4.95568 1.553092,-6.485313 1.099656,-5.454044 4.675877,-9.009746 12.185447,-12.115521 3.46121,-1.431471 3.82576,-1.539165 10.57469,-3.123928 6.63724,-1.558539 6.67145,-2.814158 0.0753,-2.7653 -11.73227,0.0869 -24.321596,6.580964 -25.378025,13.090974 -0.104295,0.642692 -0.336974,1.168531 -0.517066,1.168531 -0.180092,0 -0.228511,0.160069 -0.107599,0.355709 0.293462,0.474832 -0.720348,5.523598 -1.770388,8.816518 -1.15214,3.6131 -1.93559,6.80131 -1.93559,7.87679 0,0.88454 0.109053,0.94338 2.293055,1.23717 0.194028,0.0261 0.528577,-0.0692 0.743442,-0.21173 z m 71.838441,56.97902 c -0.19422,-0.24254 -0.64478,-1.69341 -1.00124,-3.22417 -0.97129,-4.17106 -2.13821,-5.14741 -6.158,-5.15234 -4.26213,-0.005 -3.37184,-3.74705 1.00586,-4.2276 3.84399,-0.42197 4.44889,-0.93266 4.97512,-4.20021 0.70293,-4.36477 3.11021,-4.63428 3.90615,-0.43731 0.71545,3.77258 2.35176,4.83156 7.6812,4.97106 2.25819,0.0591 0.10144,3.72912 -2.37701,4.04483 -3.82789,0.4876 -4.54841,1.18861 -5.28194,5.13893 -0.55753,3.00247 -1.74782,4.33847 -2.75014,3.08681 z M 63.279563,87.756 c -0.288525,-0.44861 -0.683535,-1.68878 -0.8778,-2.75593 -0.873347,-4.79755 -2.991687,-6.69531 -7.47966,-6.70081 -3.552694,-0.004 -3.537347,-3.20712 0.01764,-3.68122 3.833105,-0.5112 6.68218,-2.137288 6.709765,-3.829556 0.113631,-6.970952 3.713463,-8.908935 4.400406,-2.368974 0.433831,4.130227 2.193919,5.84958 6.389215,6.24134 4.293012,0.40089 4.473892,3.32148 0.236955,3.826 -4.110969,0.48952 -5.922812,2.02351 -6.478341,5.48486 -0.586314,3.65316 -1.903733,5.36158 -2.91818,3.78429 z"
       id="path2" />
  </g>
</svg>
