<?xml version="1.0" encoding="UTF-8" standalone="no"?>
<!-- Created with Inkscape (http://www.inkscape.org/) -->

<svg
   width="121.03831mm"
   height="146.79025mm"
   viewBox="0 0 121.03831 146.79025"
   version="1.1"
   id="svg1"
   inkscape:version="1.3 (0e150ed6c4, 2023-07-21)"
   sodipodi:docname="items.svg"
   xmlns:inkscape="http://www.inkscape.org/namespaces/inkscape"
   xmlns:sodipodi="http://sodipodi.sourceforge.net/DTD/sodipodi-0.dtd"
   xmlns="http://www.w3.org/2000/svg"
   xmlns:svg="http://www.w3.org/2000/svg">
  <sodipodi:namedview
     id="namedview1"
     pagecolor="#ffffff"
     bordercolor="#000000"
     borderopacity="0.25"
     inkscape:showpageshadow="2"
     inkscape:pageopacity="0.0"
     inkscape:pagecheckerboard="0"
     inkscape:deskcolor="#d1d1d1"
     inkscape:document-units="mm"
     inkscape:zoom="0.70110129"
     inkscape:cx="22.108075"
     inkscape:cy="410.7823"
     inkscape:window-width="1680"
     inkscape:window-height="1030"
     inkscape:window-x="131"
     inkscape:window-y="99"
     inkscape:window-maximized="0"
     inkscape:current-layer="layer1" />
  <defs
     id="defs1" />
  <g
     inkscape:label="Calque 1"
     inkscape:groupmode="layer"
     id="layer1"
     transform="translate(-99.429889,-40.007973)">
    <path
       style="display:inline; fill:currentColor" 
       d="m 106.95869,185.43909 c -1.19492,-0.81054 -3.37774,-2.24416 -4.8507,-3.18582 -1.47295,-0.94165 -2.678101,-1.82618 -2.678101,-1.96562 0,-3.90299 1.223241,-4.00739 6.403631,-0.54652 5.32549,3.55779 5.08702,3.25834 4.35346,5.46689 -0.6931,2.08674 -0.51176,2.07376 -3.22829,0.23107 z m 8.3462,-5.015 c -1.87941,-1.36366 -12.36672,-7.46202 -14.04258,-8.16574 -1.462363,-0.61408 -1.29412,-1.53091 0.58439,-3.18459 1.62541,-1.43088 1.74558,-1.42732 4.58142,0.13556 5.13255,2.82864 8.52399,5.35853 8.52399,6.35859 0,0.25298 0.36653,0.45997 0.81452,0.45997 1.60455,0 2.19682,0.79987 1.7346,2.34261 -0.22571,0.75336 -0.32214,1.70717 -0.21429,2.11959 0.31174,1.19211 -0.27505,1.17258 -1.98205,-0.066 z m -0.57337,-10.88063 c -3.32279,-2.00372 -6.60608,-4.07381 -7.29622,-4.6002 l -1.25479,-0.95708 1.10232,-1.56387 c 1.37944,-1.95702 0.71167,-2.14299 6.64933,1.85178 2.79229,1.87862 5.90034,3.96972 6.90677,4.6469 l 1.82987,1.23124 -0.68334,0.86873 c -0.37584,0.4778 -0.68335,1.16482 -0.68335,1.52671 0,0.95937 0.009,0.9636 -6.57059,-3.00421 z m 36.39669,-2.07045 c -0.0758,-0.24253 -0.32481,-1.27444 -0.5533,-2.29312 -0.687,-3.06292 -1.5701,-4.03379 -4.414,-4.85264 -4.34961,-1.25239 -4.93556,-2.99983 -1.24909,-3.7251 3.90565,-0.76839 5.00598,-2.0258 5.76124,-6.58365 0.36187,-2.1838 0.38167,-2.21285 1.50816,-2.21285 h 1.14147 l 0.24813,2.38125 c 0.48812,4.68443 1.37248,5.66637 6.00768,6.67056 1.30108,0.28188 1.40216,0.38756 1.29639,1.3554 -0.16487,1.50865 -0.57957,1.85104 -2.80042,2.31208 -2.59853,0.53946 -3.81449,1.72917 -4.15828,4.0685 -0.43975,2.99229 -2.18815,4.79813 -2.78798,2.87957 z m 25.32381,-1.76388 c -1.22126,-1.36154 -1.88094,-2.51029 -1.86835,-3.2535 0.0135,-0.79644 2.74088,-4.81331 3.41952,-5.03623 0.55942,-0.18376 3.2634,4.06768 3.26779,5.13792 0.0113,2.75968 -3.25467,4.89578 -4.81896,3.15181 z m -59.354,-3.99349 c -3.21802,-2.18849 -3.14462,-1.99431 -1.55153,-4.10479 0.7754,-1.02723 3.12302,-4.4077 5.21692,-7.51214 2.09391,-3.10445 3.92873,-5.77915 4.07739,-5.9438 0.36762,-0.40714 5.13897,2.03206 6.80302,3.47783 l 1.34588,1.16933 -0.73568,1.44207 c -0.81213,1.5919 -1.0998,1.71878 -1.95589,0.86269 -0.89397,-0.89397 -2.15603,0.2613 -4.13623,3.78626 -4.4129,7.85541 -5.8996,8.97448 -9.06388,6.82255 z m 93.65489,-12.26486 c -0.66237,-1.03547 -1.6129,-2.15038 -2.11228,-2.47758 -1.28144,-0.83963 -1.14306,-1.48654 0.76773,-3.58895 0.92163,-1.01406 1.95351,-2.22003 2.29305,-2.67992 l 0.61737,-0.83618 0.61736,0.82957 c 0.33954,0.45626 1.52773,1.83869 2.64041,3.07208 2.16448,2.39928 2.2385,2.84892 0.62582,3.80155 -0.56825,0.33567 -1.61427,1.31946 -2.32449,2.1862 -1.61965,1.97656 -1.66733,1.97188 -3.12497,-0.30677 z m -76.7508,-5.03502 c -1.45521,-0.85974 -3.51896,-2.02338 -4.58611,-2.58588 -3.38175,-1.78252 -3.50178,-1.92482 -2.46609,-2.92371 0.48322,-0.46606 1.05296,-1.15198 1.26608,-1.52427 0.37467,-0.6545 0.43362,-0.64637 1.78146,0.24559 0.76669,0.50736 2.17982,1.32179 3.14029,1.80984 3.02275,1.53594 5.54078,3.79979 4.96202,4.46112 -0.26753,0.3057 -0.59527,0.913 -0.72831,1.34956 -0.30617,1.00472 -0.22689,1.0243 -3.36934,-0.83225 z m 31.39722,0.20974 c 0,-0.27255 7.64656,-6.52897 9.17222,-7.50472 0.48507,-0.31023 2.23132,-0.98847 3.88056,-1.50719 22.75278,-7.1563 40.97232,-36.354528 33.08424,-53.020048 l -0.72689,-1.53573 2.88858,-2.87399 c 3.33609,-3.31926 3.36676,-3.31407 4.6321,0.78261 9.22996,29.883158 -12.39147,60.262808 -46.22803,64.953678 -2.8134,0.39004 -5.47247,0.76683 -5.90903,0.83732 -0.43656,0.0705 -0.79375,0.0111 -0.79375,-0.13193 z m -28.41341,-7.09645 c -3.60983,-2.06745 -6.15881,-3.76313 -6.15881,-4.09708 0,-0.3221 1.82004,-2.91243 2.04636,-2.91243 0.36198,0 5.5588,2.93859 7.10891,4.01981 0.86381,0.60251 1.73277,1.20617 1.93104,1.34147 0.22235,0.15174 0.0599,0.56599 -0.42403,1.08107 -0.43147,0.45929 -0.7845,1.18203 -0.7845,1.60608 0,1.05417 -0.1257,1.01905 -3.71897,-1.03892 z m 7.0668,-5.60415 c -0.12187,-0.19719 -0.36306,-0.2711 -0.53597,-0.16423 -0.68594,0.42393 -7.1915,-3.46758 -7.60701,-4.55038 -0.23611,-0.61531 1.61145,-3.39353 2.25675,-3.39353 1.6474,0 7.83007,4.44001 7.83007,5.62308 0,1.32374 -1.48682,3.22453 -1.94384,2.48506 z m 33.34105,-0.40245 c 0,-0.21475 0.30804,-0.88888 0.68454,-1.49805 3.94088,-6.37649 2.89567,-16.82707 -2.29489,-22.9454 l -1.97854,-2.3322 1.67865,-3.25321 c 1.72822,-3.349278 3.24222,-5.835148 6.94832,-11.408618 l 2.13883,-3.21652 1.46745,0.64912 c 5.74633,2.54188 11.41192,2.2529 17.87619,-0.91178 4.12053,-2.01727 4.02266,-2.03121 4.48769,0.63918 2.50929,14.409438 -7.79261,32.773738 -23.24712,41.440608 -2.57404,1.44351 -7.76112,3.33951 -7.76112,2.83687 z m -69.49468,-2.23502 c -0.65682,-0.67766 -1.48171,-1.32336 -1.8331,-1.43488 -0.93618,-0.29713 -0.85485,-2.13149 0.11758,-2.65192 0.41605,-0.22266 1.42405,-1.0202 2.23999,-1.77232 l 1.48354,-1.36747 1.05951,1.16433 c 0.58274,0.64038 1.49105,1.50377 2.01848,1.91864 1.31325,1.033 1.14301,2.44594 -0.39799,3.30329 -0.62166,0.34587 -1.4551,0.95366 -1.85208,1.35065 -0.99592,0.99591 -1.45634,0.91306 -2.83593,-0.51032 z m 41.27247,-3.76025 c -3.8099,-2.1876 -8.40092,-4.97447 -9.14078,-5.5487 l -0.8505,-0.66009 1.19382,-1.42198 1.19383,-1.42198 1.42001,0.72444 c 2.64042,1.34704 7.41312,4.43303 8.26823,5.34616 l 0.8499,0.90757 -0.63889,1.4168 c -0.73032,1.61957 -0.65713,1.59859 -2.29562,0.65778 z m 0.31892,-8.87951 c -2.9037,-1.83932 -4.30164,-2.95739 -4.14446,-3.31472 0.10547,-0.23977 5.87035,-8.88667 6.14711,-9.22021 0.16417,-0.19786 6.14571,3.78263 6.13962,4.08569 -0.003,0.14988 -0.59832,1.31909 -1.32292,2.59824 -0.72459,1.27916 -1.95244,3.45928 -2.72855,4.84471 -0.77611,1.38543 -1.49049,2.51025 -1.5875,2.49961 -0.097,-0.0106 -1.2235,-0.68264 -2.5033,-1.49332 z m -33.39899,-7.89504 c -13.50893,-26.443928 0.40928,-56.905898 30.73301,-67.263513 6.01562,-2.054744 5.88411,-2.06938 5.15024,0.573161 -0.20233,0.728574 -0.40012,2.075821 -0.43954,2.993883 -0.0584,1.361457 -0.20164,1.692231 -0.77668,1.794098 -5.68227,1.006605 -17.18102,9.958013 -22.03818,17.156001 -8.98486,13.314992 -10.90046,22.053792 -8.47099,38.64384 0.39217,2.67799 -0.64678,7.97982 -1.7614,8.98854 -0.59502,0.53849 -0.73023,0.37565 -2.39646,-2.88601 z m 47.89673,-2.4773 c -0.87313,-0.48967 -4.06757,-2.54678 -7.09876,-4.57137 l -5.51126,-3.681058 0.65254,-0.77321 c 2.35999,-2.7964 14.77189,-21.57572 15.90759,-24.06832 0.49007,-1.07557 0.68179,-1.07986 1.93185,-0.0432 1.60794,1.33348 9.32312,6.41872 11.05137,7.28419 2.05371,1.02846 1.99625,0.938 1.17908,1.85618 -1.65041,1.85442 -12.75036,19.185058 -14.68569,22.929168 -1.17959,2.28203 -1.23209,2.29839 -3.42672,1.06759 z m 4.73477,-11.033568 c 0.99825,-1.84326 3.14132,-5.46468 4.76238,-8.0476 1.71605,-2.73428 2.81651,-4.82693 2.63414,-5.00911 -0.17228,-0.1721 -1.64156,-1.11959 -3.26507,-2.10555 -3.42998,-2.08301 -2.75732,-2.41184 -6.11928,2.99143 -1.20725,1.94028 -3.49988,5.45785 -5.09473,7.81683 -4.27945,6.32985 -4.26429,6.87664 0.28185,10.164768 l 2.59055,1.87368 1.19758,-2.16653 c 0.65867,-1.191588 2.01433,-3.674648 3.01258,-5.517918 z m -45.14631,1.61301 c -3.08811,-16.46104 9.6836,-38.926409 25.55934,-44.958714 l 1.79943,-0.683729 0.009,2.700135 c 0.0222,6.950119 2.88786,12.096854 9.77802,17.561328 0.92324,0.73221 1.81786,1.44672 1.98804,1.58779 0.17018,0.14108 -0.87613,2.05402 -2.32512,4.25098 -1.44899,2.19697 -4.01575,6.09792 -5.70391,8.66879 -1.68817,2.57087 -3.26124,4.67258 -3.49572,4.67048 -0.23448,-0.002 -1.20562,-0.24022 -2.15809,-0.52916 -6.96157,-2.11187 -16.17266,0.47458 -22.74993,6.38812 -2.08004,1.87014 -2.40658,1.91173 -2.70069,0.34398 z m 57.79858,-24.16379 c -6.81543,-3.41146 -7.86242,-4.55871 -6.0075,-6.582778 l 1.14898,-1.253758 1.70789,0.732088 c 3.33471,1.429428 9.49086,6.006548 9.22036,6.855378 -0.13167,0.41318 -0.32195,1.18781 -0.42285,1.72138 -0.23651,1.25076 -0.17435,1.26696 -5.64688,-1.47231 z"
       id="path3" />
  </g>
</svg>
