<?xml version="1.0" encoding="UTF-8" standalone="no"?>
<!-- Created with Inkscape (http://www.inkscape.org/) -->

<svg
   version="1.1"
   id="svg1"
   width="546.0387"
   height="535.42316"
   viewBox="0 0 546.03869 535.42316"
   sodipodi:docname="recherche.svg"
   inkscape:version="1.3 (0e150ed6c4, 2023-07-21)"
   xml:space="preserve"
   xmlns:inkscape="http://www.inkscape.org/namespaces/inkscape"
   xmlns:sodipodi="http://sodipodi.sourceforge.net/DTD/sodipodi-0.dtd"
   xmlns="http://www.w3.org/2000/svg"
   xmlns:svg="http://www.w3.org/2000/svg"><defs
     id="defs1" /><sodipodi:namedview
     id="namedview1"
     pagecolor="#ffffff"
     bordercolor="#000000"
     borderopacity="0.25"
     inkscape:showpageshadow="2"
     inkscape:pageopacity="0.0"
     inkscape:pagecheckerboard="0"
     inkscape:deskcolor="#d1d1d1"
     showgrid="false"
     inkscape:zoom="0.89567524"
     inkscape:cx="290.84202"
     inkscape:cy="233.90174"
     inkscape:window-width="1920"
     inkscape:window-height="1001"
     inkscape:window-x="-9"
     inkscape:window-y="-9"
     inkscape:window-maximized="1"
     inkscape:current-layer="g1" /><g
     inkscape:groupmode="layer"
     inkscape:label="Image"
     id="g1"
     transform="translate(133.47527,-21.413279)"><path
       style="fill:#000000"
       d="m -33.980129,555.02357 c -26.74437,-4.99161 -48.377806,-16.30148 -67.179301,-35.12105 -27.10619,-27.13225 -37.97488,-62.31253 -29.49468,-95.46978 10.32435,-40.36782 51.369252,-73.80669 97.548941,-79.47213 30.7681205,-3.77471 61.84223,3.5687 88.86304,21.00007 25.54311,16.47808 39.74622,38.10671 45.036349,68.58176 2.92359,16.84206 1.79446,28.15905 -4.704789,47.15516 -4.70288,13.74562 -6.07448,16.16969 -16.6963,29.50787 -13.58524,17.05945 -20.88669,23.37985 -36.53561,31.62656 -23.49999,12.3841 -51.7717595,16.86987 -76.83765,12.19154 z m 45.33334,-26.49836 c 4.4,-1.18118 12.86773,-4.52993 18.81719,-7.44168 18.57445,-9.09059 36.14898,-29.84706 41.21691,-48.67942 3.04281,-11.307 3.92828,-27.93762 2.06501,-38.78409 -4.28886,-24.96623 -25.84985,-50.26279 -51.43245,-60.34341 -15.1114695,-5.95456 -24.1013695,-7.32274 -42.00755,-6.39314 -18.805,0.97627 -32.39732,4.34683 -44.645247,11.07093 -10.641001,5.8419 -27.034835,21.33011 -31.182225,29.45967 -4.489209,8.79957 -8.251009,24.17721 -9.085889,37.14168 -0.65737,10.20799 -0.31076,13.72686 2.16703,22 9.432403,31.49411 35.84459,55.4107 69.761011,63.16954 10.43912,2.38809 33.26169049,1.7702 44.32621,-1.20008 z m -47.10273,-15.49371 c -45.05388,-11.80197 -68.708531,-67.92892 -42.986663,-101.99729 10.677897,-14.14278 30.805563,-24.96524 53.422723,-28.7249 14.86372,-2.4708 41.03569,3.34783 54.807,12.18485 10.08261,6.47 21.80966,19.86531 25.23125,28.82058 6.41754,16.79655 4.10011,38.28676 -6.25338,57.9895 -14.36851,27.34331 -49.8830295,40.72216 -84.22093,31.72726 z m -19.432384,-64.53599 c 1.498699,-1.04973 3.434964,-4.27855 4.302804,-7.17516 0.86785,-2.89661 2.47515,-6.01121 3.57177,-6.92133 1.09663,-0.91012 2.00199,-2.33129 2.01192,-3.15817 0.01,-0.82687 2.70992,-3.82789 6,-6.66892 4.80278,-4.1473 5.98195,-6.02061 5.98195,-9.50341 0,-5.71793 -2.7348,-7.8652 -8.6128,-6.76248 -9.19398,1.7248 -17.706167,12.16991 -16.171432,19.84358 0.686351,3.43176 0.101346,4.69065 -3.870266,8.3285 -5.606046,5.13494 -6.347046,10.67472 -1.678836,12.55111 4.232904,1.70142 5.376753,1.6293 8.46489,-0.53372 z M 280.8158,555.63526 c -38.30422,-5.25991 -73.12483,-26.78221 -89.95584,-55.60087 -2.96564,-5.07788 -7.03746,-13.97201 -9.04849,-19.76473 -3.21848,-9.27075 -3.66034,-12.52841 -3.68917,-27.19888 -0.0276,-14.02785 0.44882,-18.01533 3.00883,-25.18478 5.23596,-14.66361 10.86422,-24.81386 20.1509,-36.341 17.37404,-21.5656 34.27042,-33.03663 62.54216,-42.46012 36.32341,-12.10727 73.61872,-5.6246 109.21627,18.98396 15.94564,11.02322 29.08275,29.19421 34.94501,48.33527 6.44487,21.04335 6.08354,42.47264 -1.07538,63.77652 -4.49302,13.37056 -19.80683,36.59897 -30.26842,45.91198 -24.26767,21.6033 -64.13548,33.89436 -95.82587,29.54265 z m 34.1169,-25.91664 c 5.36461,-1.11035 15.44191,-4.75125 22.39399,-8.09087 10.79657,-5.18644 14.29855,-7.7604 24.01073,-17.64785 17.66256,-17.9813 24.37337,-33.748 24.5061,-57.57579 0.13045,-23.41844 -7.24241,-39.07416 -27.26075,-57.88621 -13.0461,-12.25994 -22.84368,-17.43581 -38.18018,-20.16984 -12.40686,-2.21176 -31.10179,-2.44701 -43.04938,-0.54173 -22.86996,3.64707 -53.769,25.05681 -63.29595,43.85734 -3.84442,7.58659 -8.71042,30.67139 -8.68823,41.21786 0.0551,26.21158 19.50654,55.27873 45.56835,68.09495 20.85224,10.25435 42.44073,13.20346 63.99532,8.74214 z m -40.5373,-16.05176 c -24.30142,-5.89147 -44.59058,-26.04174 -51.0006,-50.65148 -2.78247,-10.68261 -2.56481,-19.15726 0.81358,-31.67776 2.26572,-8.39687 4.15106,-12.1386 9.1321,-18.12392 8.56561,-10.29263 24.83966,-20.72833 41.02842,-26.3094 11.17561,-3.85279 14.75616,-4.478 25.70417,-4.48826 14.24127,-0.0134 24.56544,2.20694 36.85295,7.9255 26.80544,12.47516 38.92007,43.37528 29.14051,74.32708 -4.22653,13.37673 -8.78009,20.39149 -20.07228,30.92135 -14.63621,13.64811 -31.9319,20.23791 -52.58784,20.0364 -6.2626,-0.0611 -14.81755,-0.94288 -19.01101,-1.95951 z m -15.71656,-65.91082 c 0.90703,-2.18978 1.36141,-5.93978 1.00972,-8.33334 -0.96415,-6.56196 1.09622,-9.64681 7.606,-11.38791 8.54497,-2.28543 14.30077,-7.62929 13.79648,-12.80909 -0.34976,-3.59259 -0.97948,-4.21061 -4.65293,-4.5664 -8.23649,-0.79774 -16.38405,6.47747 -16.43865,14.6786 -0.0168,2.52384 -0.26788,2.71244 -1.41936,1.06621 -1.06119,-1.51713 -1.28583,-0.82689 -0.93045,2.85895 0.44787,4.64517 0.3272,4.80523 -2.74283,3.638 -5.02993,-1.91237 -6.88695,0.66411 -6.88695,9.5552 0,7.95398 0.685,8.97244 6.17158,9.17592 1.94532,0.0722 3.35706,-1.14729 4.48739,-3.87614 z m -85.32606,-46.75193 c -2.4e-4,-4.73 1.26479,-25.88497 2.81118,-47.01104 1.54639,-21.12607 2.49994,-38.72272 2.11899,-39.10366 -0.38095,-0.38095 -3.75619,1.41473 -7.50054,3.99039 -20.65609,14.20889 -42.20911,14.47422 -62.38597,0.76803 -12.200629,-8.28793 -12.381099,-8.06365 -8.923339,11.08961 1.621779,8.98334 3.925259,27.43334 5.118859,41 1.1936,13.56667 2.5213,27.21667 2.95044,30.33334 0.51514,3.74122 0.27577,5.66667 -0.70447,5.66667 -0.8166,0 -1.48472,-0.68274 -1.48472,-1.51719 0,-2.78355 -12.167749,-22.16733 -19.479429,-31.03162 -17.47424,-21.18484 -39.07736,-33.54201 -74.91941,-42.85456 -10.39870951,-2.70181 -15.6891095,-3.2577 -30.74713,-3.23071 -10.00305,0.0179 -20.8257,0.6408 -24.05033,1.38416 -8.819822,2.03319 -34.918075,11.97432 -39.470371,15.03473 -5.495703,3.69464 -20.10731,16.33162 -26.98423,23.33755 -3.12534,3.18397 -5.68244,5.49915 -5.68244,5.14484 0,-2.66347 36.237883,-98.76375 58.67448,-155.60054 19.609391,-49.67486 35.992191,-91.89846 35.992191,-92.76312 0,-0.39143 1.5,-2.91915 3.33333,-5.61714 4.38556,-6.45393 4.20486,-10.82994 -0.78185,-18.93439 -7.38618,-12.00407 -7.51528,-30.27629 -0.31431,-44.48672 5.1628,-10.18829 17.0235005,-21.04308 30.03127,-27.4843 35.24388,-17.45214 79.03433,-4.17337 95.269109,28.88887 3.32865,6.7788 3.79235,9.20693 3.76789,19.73012 -0.0231,9.94717 -0.62905,13.41242 -3.54198,20.25637 -1.93276,4.54101 -5.30471,10.54101 -7.493229,13.33334 -3.58568,4.57497 -4.06739,6.36237 -4.87179,18.07696 -0.62237,9.06359 -0.45115,13 0.56544,13 3.7508,0 14.523689,-7.02092 18.919159,-12.33003 6.43738,-7.77543 16.01909,-11.039 29.17248,-9.93627 10.83629,0.90847 17.34552,3.99803 25.62954,12.16486 3.40395,3.35579 6.85116,6.10144 7.66046,6.10144 0.80931,0 3.23765,1.93372 5.39631,4.29715 l 3.92484,4.29715 v -12.73116 -12.73117 l -7.10896,-9.3835 c -8.47723,-11.18955 -10.93074,-18.7214 -10.77643,-33.0818 0.18775,-17.47202 7.7316,-30.23779 25.2606,-42.74623 16.37917,-11.68793 34.36629,-16.30123 53.95812,-13.83907 13.91383,1.74859 29.34077,9.27378 38.87781,18.96442 15.83242,16.08741 19.405,33.34703 11.89191,57.45153 -2.25668,7.24019 -4.10305,14.0073 -4.10305,15.03802 0,1.03072 1.87954,5.59739 4.17676,10.14816 5.68859,11.26903 25.29968,59.69427 58.71481,144.98317 4.45332,11.36667 10.77411,26.66667 14.04621,34.00001 6.38247,14.30423 26.57707,64.27304 28.4248,70.33333 0.61486,2.01667 0.84922,3.66667 0.52078,3.66667 -0.32843,0 -4.33654,-3.97829 -8.90692,-8.84064 -26.63203,-28.33338 -59.71257,-40.87172 -102.27014,-38.76291 -30.31681,1.50226 -53.33975,10.80345 -78.22725,31.60355 -3.07104,2.56666 -7.96377,6.59061 -10.87275,8.9421 -6.37089,5.14997 -17.09745,21.04866 -20.25996,30.02891 -3.73197,10.59731 -5.34628,10.88786 -5.34677,0.96232 z m 45.79638,-68.33292 c 8.12081,-5.98804 22.4906,-13.08002 33.20405,-16.38733 6.16158,-1.90212 7.66666,-2.91876 7.66666,-5.17863 0,-5.00991 -4.04523,-33.91801 -9.52035,-68.03446 -5.51152,-34.34328 -11.70705,-75.60857 -15.21409,-101.33333 -2.96884,-21.77704 -2.55045,-20.68561 -7.39685,-19.29568 -4.85779,1.39319 -15.80566,8.20938 -19.18737,11.94614 -1.30409,1.44099 -2.74087,2.39484 -3.19287,2.11966 -0.94827,-0.57732 -1.01322,1.42151 -2.79116,85.89655 -1.5251,72.46201 -2.42747,101.50543 -3.62395,116.63936 l -0.84114,10.63936 7.01318,-5.97269 c 3.85724,-3.28498 10.10499,-8.25251 13.88389,-11.03895 z M -63.170851,317.47162 c 11.246912,-5.86569 28.092432,-9.97034 39.411642,-9.60322 5.02139,0.16286 9.42628,-3.8e-4 9.78866,-0.36276 0.36238,-0.36238 2.73148,-10.80847 5.2646505,-23.21354 11.67918,-57.19334 25.1908695,-118.08499 32.7793195,-147.72294 2.22989,-8.70922 3.80897,-16.08032 3.50907,-16.38022 -1.11292,-1.11292 -15.51353,5.12397 -22.9081595,9.9215 -8.3815,5.43779 -7.2234,3.2531 -19.2391905,36.29366 -12.47578,34.3054 -14.53944,39.7845 -16.04192,42.59191 -0.87773,1.64006 -3.29126,7.87781 -5.36339,13.86167 -2.07213,5.98387 -5.2324,14.47976 -7.02282,18.87976 -1.79042,4.4 -5.7818,14.6 -8.86973,22.66667 -3.08793,8.06666 -7.020767,17.96666 -8.739639,22 -1.718871,4.03333 -4.395543,12.03923 -5.94816,17.79089 -1.552618,5.75166 -3.759299,12.26828 -4.903738,14.48138 -1.144438,2.2131 -1.580938,3.80289 -0.97,3.53286 0.610938,-0.27002 4.77497,-2.40195 9.253405,-4.73762 z m 209.437261,-9.82299 c 4.62671,-1.75302 9.75346,-6.41585 9.75346,-8.87088 0,-1.0055 -1.47272,-3.30091 -3.27272,-5.10091 -2.81471,-2.81471 -4.50638,-3.27273 -12.08766,-3.27273 -4.84821,0 -9.97548,0.62111 -11.39394,1.38024 -6.9416,3.71503 1.45375,16.84275 11.00086,17.20191 1.23559,0.0465 3.93559,-0.55545 6,-1.33763 z m -43.85119,-22.91119 c 4.15264,-7.9226 13.74886,-16.42179 21.988,-19.47435 15.09093,-5.5911 37.58756,-2.68948 48.42818,6.24628 5.54881,4.57379 7.18847,4.40103 7.18847,-0.75744 0,-4.93392 -10.33627,-14.1984 -19.80414,-17.75061 -5.08211,-1.90673 -10.77932,-2.85291 -17.52919,-2.9112 -27.43616,-0.23691 -43.129449,10.59132 -44.983509,31.03823 -0.82952,9.14814 1.05311,10.59006 4.712189,3.60909 z m 22.20054,-53.61201 12.07078,-2.96765 0.0593,-26.54351 c 0.0326,-14.59892 0.52628,-30.55542 1.09706,-35.45888 0.96067,-8.25287 1.30305,-8.96934 4.60739,-9.64162 7.13002,-1.45063 19.98714,2.19338 29.88409,8.46984 5.30802,3.36625 5.95344,3.51706 5.36131,1.25275 -1.0405,-3.97889 -10.66277,-11.49302 -18.90333,-14.76181 -5.8844,-2.33416 -10.2386,-2.96337 -20.83412,-3.01066 -12.85725,-0.0574 -13.80341,0.14192 -23.56868,4.96462 -14.699789,7.25968 -16.561389,9.96008 -17.744439,25.73977 -0.53906,7.1901 -0.30155,22.36739 0.53849,34.40949 0.82662,11.84989 1.50295,22.8936 1.50295,24.54159 v 2.99634 l 6.929219,-3.51131 c 3.81107,-1.93121 12.36107,-4.84674 19,-6.47896 z m 96.4996,-132.47737 c 11.34866,-7.31574 16.11256,-8.69397 27.42034,-7.93285 7.89108,0.53114 13.56246,2.15688 21.15084,6.06303 2.40173,1.2363 0.69867,-5.19431 -2.32837,-8.79175 -4.61195,-5.48099 -12.75209,-8.4198 -25.61348,-9.24715 -9.19729,-0.59164 -12.21244,-0.2287 -18.91107,2.27642 -9.39098,3.512 -18.42573,10.80069 -20.98724,16.93125 -1.00458,2.4043 -1.82651,7.14658 -1.82651,10.53843 v 6.16698 l 6.33334,-5.28542 c 3.48333,-2.90698 10.1263,-7.7305 14.76215,-10.71894 z M 17.592511,97.86828 c 4.16495,-1.84106 10.76495,-3.75526 14.66667,-4.25377 3.90171,-0.49851 8.81691,-1.77789 10.92267,-2.84306 6.27283,-3.17305 22.48483,1.53666 28.93926,8.40708 3.98573,4.24262 5.2321,4.06919 5.2321,-0.72803 0,-12.9036 -27.38149,-23.53683 -48.21724,-18.72451 -12.25982,2.83158 -18.1438,7.12613 -22.5634795,16.46844 -4.97504,10.51623 -5.04272,13.14936 -0.21928,8.53158 2.01666,-1.93069 7.0743495,-5.01666 11.2392995,-6.85773 z M 217.13014,61.38826 c 9.46259,-4.67666 10.84993,-4.98416 22.48725,-4.98416 6.82136,0 12.40248,-0.0373 12.40248,-0.0829 0,-0.0456 -1.20276,-2.57234 -2.67281,-5.61499 -2.13282,-4.41443 -3.74229,-5.85251 -7.96633,-7.11807 -11.17856,-3.34918 -34.54608,3.83807 -45.19034,13.89937 -7.31005,6.90971 -11.18258,17.65711 -8.69658,24.13553 0.62648,1.63258 2.90623,0.16041 10.17942,-6.57346 5.73307,-5.30794 13.28793,-10.61245 19.45691,-13.66133 z M 3.8758715,71.88144 c 2.85413,-2.85413 9.8773995,-7.50413 15.6072695,-10.33333 10.10799,-4.99097 10.81638,-5.1394 23.81067,-4.98907 10.02912,0.11602 15.37317,0.87035 21.27817,3.00345 12.4782,4.5076 10.76974,2.10554 -3.70708,-5.21207 -3.56857,-1.80381 -8.06857,-5.22964 -10,-7.61295 -3.12391,-3.85479 -4.24786,-4.3297 -10.17836,-4.30074 -22.12087,0.10803 -44.6666695,14.75216 -44.6666695,29.01227 0,3.39706 0.87941,5.62177 2.22222,5.62177 0.24445,0 2.77965,-2.3352 5.63378,-5.18933 z"
       id="path1" /></g></svg>
